<?xml version="1.0" standalone="no"?>
<!DOCTYPE svg PUBLIC "-//W3C//DTD SVG 20010904//EN"
 "http://www.w3.org/TR/2001/REC-SVG-20010904/DTD/svg10.dtd">
<svg version="1.0" xmlns="http://www.w3.org/2000/svg"
 width="500.000000pt" height="500.000000pt" viewBox="0 0 500.000000 500.000000"
 preserveAspectRatio="xMidYMid meet">

<g transform="translate(0.000000,500.000000) scale(0.100000,-0.100000)"
fill="#000000" stroke="none">
<path d="M2035 4989 c-302 -24 -506 -187 -594 -474 -21 -67 -22 -88 -22 -480
0 -391 -1 -412 -19 -440 -25 -37 -25 -67 -2 -93 26 -32 63 -37 95 -12 34 27
37 78 7 105 -19 18 -20 31 -20 419 0 452 1 464 71 603 32 64 58 98 112 149
127 121 284 171 497 161 247 -12 428 -114 523 -295 65 -124 67 -139 67 -603 0
-403 -1 -416 -20 -434 -48 -43 -2 -135 60 -120 54 13 75 69 43 115 -16 22 -18
66 -19 460 -2 381 -4 442 -19 490 -98 313 -380 480 -760 449z"/>
<path d="M3280 4019 c-217 -21 -396 -38 -397 -38 -2 -1 -3 -35 -3 -76 l0 -75
283 0 c279 0 282 0 296 -22 39 -63 154 -308 194 -413 85 -227 149 -500 179
-770 20 -179 17 -662 -5 -845 -69 -573 -229 -1148 -461 -1662 -14 -32 -24 -58
-22 -58 10 0 180 279 253 415 245 456 400 941 474 1485 29 219 37 680 15 910
-40 423 -120 734 -264 1033 l-76 157 -35 -1 c-20 -1 -214 -18 -431 -40z"/>
<path d="M2105 3914 c-308 -29 -561 -53 -562 -53 -2 -1 -3 -11 -3 -23 l0 -21
263 6 c144 4 400 7 570 7 l307 0 0 70 c0 39 -3 69 -7 69 -5 -1 -260 -25 -568
-55z"/>
<path d="M1230 3835 l-115 -12 123 -2 c102 -1 122 1 122 14 0 8 -3 14 -7 14
-5 -1 -60 -7 -123 -14z"/>
</g>
</svg>
